<svg width="5" height="8" viewBox="0 0 5 8" fill="none" xmlns="http://www.w3.org/2000/svg">
<path d="M0.965438 0.973174C1.01012 0.928375 1.0708 0.903198 1.13407 0.903198C1.19735 0.903198 1.25802 0.928375 1.30271 0.973174L4.16093 3.8314C4.20573 3.87609 4.23091 3.93676 4.23091 4.00003C4.23091 4.06331 4.20573 4.12399 4.16093 4.16867L1.30271 7.0269C1.20957 7.12003 1.05857 7.12003 0.965438 7.0269C0.872304 6.93376 0.872304 6.78276 0.965438 6.68963L3.6555 4.00003L0.965438 1.31044C0.92064 1.26576 0.895462 1.20508 0.895462 1.14181C0.895462 1.07853 0.92064 1.01786 0.965438 0.973174Z" fill="#0F0F0F"/>
</svg>
