<?xml version="1.0" encoding="UTF-8"?>
<svg width="113px" height="113px" viewBox="0 0 113 113" version="1.1" xmlns="http://www.w3.org/2000/svg" xmlns:xlink="http://www.w3.org/1999/xlink">
    <!-- Generator: Sketch 55.2 (78181) - https://sketchapp.com -->
    <title>computer</title>
    <desc>Created with Sketch.</desc>
    <g id="Page-1" stroke="none" stroke-width="1" fill="none" fill-rule="evenodd">
        <g id="Home" transform="translate(-872.000000, -4139.000000)" fill="#FFFFFF" fill-rule="nonzero">
            <g id="Illustration" transform="translate(849.000000, 3182.000000)">
                <g id="computer" transform="translate(23.000000, 957.000000)">
                    <path d="M107.35,0 L39.55,0 C36.4295521,0 33.9,2.53701377 33.9,5.6666664 L33.9,47.22222 L9.41666667,47.22222 C6.29621875,47.22222 3.76666667,49.7592338 3.76666667,52.8888864 L3.76666667,90.6666624 L1.88333333,90.6666624 C0.8432625,90.6666624 0,91.5124124 0,92.5555512 C0.00612083333,97.7688843 4.21866667,101.993856 9.41666667,102 L69.6833333,102 C74.8787438,102.00519 79.0948208,97.785176 79.1,92.5744401 C79.1,92.5680651 79.1,92.5619262 79.1,92.5555512 C79.1,91.5124124 78.2567375,90.6666624 77.2166667,90.6666624 L75.3333333,90.6666624 L75.3333333,69.8888856 L96.05,69.8888856 C97.0900708,69.8888856 97.9333333,69.0431356 97.9333333,68 C97.9333333,66.956858 97.0900708,66.111108 96.05,66.111108 L86.1700333,66.111108 L83.4806333,56.666664 L107.35,56.666664 C110.470448,56.666664 113,54.1296502 113,51 L113,5.6666664 C113,2.53701377 110.470448,0 107.35,0 Z M8,52.9090909 C8,51.8547955 8.84282353,51 9.88235294,51 L70.1176471,51 C71.1571765,51 72,51.8547955 72,52.9090909 L72,91.0909091 L45.6470588,91.0909091 C44.6075294,91.0909091 43.7647059,91.9457045 43.7647059,93 L36.2352941,93 C36.2352941,91.9457045 35.3924706,91.0909091 34.3529412,91.0909091 L8,91.0909091 L8,52.9090909 Z M73.6783419,96.236 C72.6133325,97.3635 71.1707738,97.99775 69.6662329,98 L9.33376706,98 C6.93743693,97.997 4.80199758,96.3955 4,94 L31.9584418,94 C31.9584418,95.1045 32.8026249,96 33.8438313,96 L45.1561687,96 C46.1973751,96 47.0415582,95.1045 47.0415582,94 L75,94 C74.719077,94.839 74.2677618,95.60225 73.6783419,96.236 Z M75,66 L75,57 L79.2792597,57 L82,66 L75,66 Z M109,51.1153846 C109,52.1561635 108.151632,53 107.105263,53 L74.8947368,53 C74.8947368,49.8774279 72.3498684,47.3461538 69.2105263,47.3461538 L37,47.3461538 L37,5.88461538 C37,4.84383654 37.8483684,4 38.8947368,4 L107.105263,4 C108.151632,4 109,4.84383654 109,5.88461538 L109,51.1153846 Z" id="Shape"></path>
                    <path d="M103.428571,72 L88.5714286,72 C85.494375,72 83,74.5030966 83,77.5909091 L83,107.409091 C83,110.496903 85.494375,113 88.5714286,113 L103.428571,113 C106.505625,113 109,110.496903 109,107.409091 L109,77.5909091 C109,74.5030966 106.505625,72 103.428571,72 Z M106,108.111111 C106,109.15425 105.149275,110 104.1,110 L88.9,110 C87.850725,110 87,109.15425 87,108.111111 L87,77.8888889 C87,76.84575 87.850725,76 88.9,76 L104.1,76 C105.149275,76 106,76.84575 106,77.8888889 L106,108.111111 Z" id="Shape"></path>
                </g>
            </g>
        </g>
    </g>
</svg>