<?xml version="1.0" encoding="UTF-8"?>
<svg width="20px" height="135px" viewBox="0 0 20 135" version="1.1" xmlns="http://www.w3.org/2000/svg" xmlns:xlink="http://www.w3.org/1999/xlink">
    <!-- Generator: Sketch 55.2 (78181) - https://sketchapp.com -->
    <title>Line</title>
    <desc>Created with Sketch.</desc>
    <g id="Page-1" stroke="none" stroke-width="1" fill="none" fill-rule="evenodd">
        <g id="Home" transform="translate(-918.000000, -3622.000000)" fill="#FFFFFF" fill-rule="nonzero">
            <g id="Illustration" transform="translate(849.000000, 3182.000000)">
                <path id="Line" d="M79.2481061,574.499996 L69.8201434,555.464148 L88.8200071,555.536117 L79.2481061,574.499996 Z M78.2556925,440.494329 L81.255671,440.505693 L81.2064289,453.505599 L78.2064505,453.494236 L78.2556925,440.494329 Z M78.1799355,460.494186 L81.179914,460.505549 L81.1306719,473.505456 L78.1306934,473.494092 L78.1799355,460.494186 Z M78.1041785,480.494042 L81.104157,480.505406 L81.0549149,493.505312 L78.0549364,493.493949 L78.1041785,480.494042 Z M78.0284214,500.493899 L81.0283999,500.505262 L80.9791578,513.505169 L77.9791794,513.493805 L78.0284214,500.493899 Z M77.9526644,520.493755 L80.9526429,520.505119 L80.9034008,533.505025 L77.9034223,533.493662 L77.9526644,520.493755 Z M77.8769074,540.493612 L80.8768859,540.504975 L80.8276438,553.504882 L77.8276653,553.493518 L77.8769074,540.493612 Z"></path>
            </g>
        </g>
    </g>
</svg>