<?xml version="1.0" encoding="UTF-8"?>
<svg width="23px" height="19px" viewBox="0 0 23 19" version="1.1" xmlns="http://www.w3.org/2000/svg" xmlns:xlink="http://www.w3.org/1999/xlink">
    <!-- Generator: Sketch 55.2 (78181) - https://sketchapp.com -->
    <title>Group</title>
    <desc>Created with Sketch.</desc>
    <g id="Page-1" stroke="none" stroke-width="1" fill="none" fill-rule="evenodd">
        <g id="Home" transform="translate(-1164.000000, -2711.000000)" fill="#FFFFFF" fill-rule="nonzero">
            <g id="Content" transform="translate(401.000000, 2311.000000)">
                <g id="Button" transform="translate(332.000000, 381.000000)">
                    <g id="next-(2)" transform="translate(431.000000, 19.000000)">
                        <g id="Group">
                            <path d="M13.5008937,19 C13.2247604,19.0005149 13.0005164,18.7769364 13,18.5006988 C12.9997664,18.367527 13.05264,18.2397478 13.1469031,18.1456835 L21.793704,9.49669371 L13.1469031,0.847656991 C12.9550488,0.648977859 12.96058,0.332319804 13.159184,0.140393043 C13.3529601,-0.0467976809 13.6601238,-0.0467976809 13.853853,0.140393043 L22.8536133,9.14355409 C23.0487956,9.33885704 23.0487956,9.6554682 22.8536133,9.85081804 L13.853853,18.8539791 C13.7601993,18.9474807 13.6332652,19 13.5008937,19 Z" id="Path"></path>
                            <path d="M22.5207744,10 L0.479180705,10 C0.214546456,10 0,9.77616838 0,9.50002344 C0,9.2238785 0.214546456,9 0.479180705,9 L22.5208193,9 C22.7854535,9 23,9.2238785 23,9.50002344 C23,9.77616838 22.7854086,10 22.5207744,10 Z" id="Path"></path>
                        </g>
                    </g>
                </g>
            </g>
        </g>
    </g>
</svg>