<svg width="5" height="8" viewBox="0 0 5 8" fill="none" xmlns="http://www.w3.org/2000/svg">
<path d="M4.03456 0.973174C3.98988 0.928375 3.9292 0.903198 3.86593 0.903198C3.80265 0.903198 3.74198 0.928375 3.69729 0.973174L0.839066 3.8314C0.794267 3.87609 0.76909 3.93676 0.76909 4.00003C0.76909 4.06331 0.794267 4.12399 0.839066 4.16867L3.69729 7.0269C3.79043 7.12003 3.94143 7.12003 4.03456 7.0269C4.1277 6.93376 4.1277 6.78276 4.03456 6.68963L1.3445 4.00003L4.03456 1.31044C4.07936 1.26576 4.10454 1.20508 4.10454 1.14181C4.10454 1.07853 4.07936 1.01786 4.03456 0.973174Z" fill="#0F0F0F"/>
</svg>
