<?xml version="1.0" encoding="UTF-8"?>
<svg width="105px" height="80px" viewBox="0 0 105 80" version="1.1" xmlns="http://www.w3.org/2000/svg" xmlns:xlink="http://www.w3.org/1999/xlink">
    <!-- Generator: Sketch 55.2 (78181) - https://sketchapp.com -->
    <title>nuxt-square-white</title>
    <desc>Created with Sketch.</desc>
    <g id="Page-1" stroke="none" stroke-width="1" fill="none" fill-rule="evenodd">
        <g id="Home" transform="translate(-876.000000, -3813.000000)" fill-rule="nonzero">
            <g id="Illustration" transform="translate(849.000000, 3182.000000)">
                <g id="nuxt-square-white" transform="translate(27.000000, 631.000000)">
                    <path d="M59,21.8934664 L55.4563982,28.29345 L43.3376006,6.40016676 L6.13492289,73.6000138 L31.3236207,73.6000138 C31.3236207,77.1346268 34.0708498,80 37.4597243,80 L6.13492548,80 C3.94291646,80 1.91760989,78.7795574 0.821787884,76.7994732 C-0.274034126,74.8193916 -0.273922813,72.3799934 0.822082992,70.4000234 L38.0247581,3.20017101 C39.120839,1.21990889 41.1465882,0 43.3388794,0 C45.5311654,0 47.5569146,1.21990889 48.6529981,3.20017101 L59,21.8934638 L59,21.8934664 Z" id="Path" fill="#00C58E"></path>
                    <path d="M87.1734059,70.4176215 L63.5866472,28.3882497 L60.0012914,22 L56.4159408,28.3882497 L32.8317673,70.4176215 C31.7228499,72.393964 31.7227373,74.8288898 32.8314713,76.8053411 C33.9402027,78.7817923 35.9893759,80 38.2072133,80 L81.7902046,80 C84.0085003,80 86.0585195,78.7831229 87.1678847,76.8064941 C88.2772473,74.8298679 88.2773809,72.3943749 87.1682305,70.4176215 L87.1734059,70.4176215 Z M38.207208,73.6117477 L60.0012967,34.776502 L81.7902046,73.6117477 L38.207208,73.6117477 L38.207208,73.6117477 Z" id="Shape" fill="#FFFFFF"></path>
                    <path d="M104.147233,76.7882503 C103.010435,78.7753071 100.909705,80 98.6361055,80 L81.3388987,80 C84.8542568,80 87.7040137,77.1240999 87.7040137,73.576498 L98.6228402,73.576498 L67.6406429,19.4236832 L62.6758494,28.1034429 L59,21.6799409 L62.1295151,16.2119309 C63.266507,14.2243918 65.3678594,13 67.6419721,13 C69.9160821,13 72.0174345,14.2243918 73.1544264,16.2119309 L104.147236,70.3647483 C105.284255,72.3521862 105.284255,74.8008098 104.147236,76.7882477 L104.147233,76.7882503 Z" id="Path" fill="#108775"></path>
                </g>
            </g>
        </g>
    </g>
</svg>