<?xml version="1.0" encoding="UTF-8"?>
<svg width="106px" height="106px" viewBox="0 0 106 106" version="1.1" xmlns="http://www.w3.org/2000/svg" xmlns:xlink="http://www.w3.org/1999/xlink">
    <!-- Generator: Sketch 55.2 (78181) - https://sketchapp.com -->
    <title>wordpress</title>
    <desc>Created with Sketch.</desc>
    <g id="Page-1" stroke="none" stroke-width="1" fill="none" fill-rule="evenodd">
        <g id="Home" transform="translate(-875.000000, -3461.000000)" fill="#00769D" fill-rule="nonzero">
            <g id="Illustration" transform="translate(849.000000, 3182.000000)">
                <g id="wordpress" transform="translate(26.000000, 279.000000)">
                    <path d="M30.8604026,32.0001232 L24.94975,32.0001232 L41.0638216,77 L50.0849665,51.5324048 L43.0907819,32.0001232 L36.8544958,32.0001232 L36.8544958,27.7122612 L64.4706945,27.7122612 L64.4706945,32.0001232 L58.0036917,32.0001232 L74.1175242,77 L79.9098299,60.6473593 C87.5081816,39.6964978 73.6821509,33.1702273 73.6821509,28.494535 C73.6821509,23.8188428 77.5189826,20.0286411 82.2516648,20.0286411 C82.5077245,20.0286411 82.7563727,20.0423403 83,20.0647787 C74.9808592,12.5861748 64.1677742,8 52.2694836,8 C36.7225211,8 23.027987,15.8288793 15,27.7122612 L30.8599245,27.7122612 L30.8599245,32.0001232 L30.8604026,32.0001232 L30.8604026,32.0001232 Z" id="Path"></path>
                    <path d="M8,52.5259272 C8,69.6326789 17.7227466,84.4915808 32,92 L11.6097826,35 C9.28705407,40.3812882 8,46.3048565 8,52.5259272 Z" id="Path"></path>
                    <path d="M92.1264609,31 C92.7742403,34.7349113 92.5781414,38.9327206 91.5841057,43.1468674 L91.764246,43.1468674 L91.0794713,45.0628622 L91.0794713,45.0628622 C90.6737326,46.4463469 90.1628113,47.8615595 89.5824938,49.2521475 L74,92 C88.2799226,84.5391749 98,69.8081296 98,52.8518595 C98,44.906353 95.8639478,37.4500266 92.1264609,31 Z" id="Path"></path>
                    <path d="M39,94.8825354 C43.3474394,96.2553587 47.9847081,97 52.8014177,97 C57.3956779,97 61.8277006,96.3240697 66,95.0702679 L52.9101335,59 L39,94.8825354 Z" id="Path"></path>
                    <path d="M90.476503,15.5232949 C80.4661785,5.51294807 67.1565693,0 52.9997632,0 C38.8429572,0 25.5335847,5.51294807 15.5232602,15.5232949 C5.51293575,25.5336417 0,38.8430439 0,53.0001184 C0,67.1569561 5.51293575,80.4663583 15.5232602,90.4767051 C25.5335847,100.487052 38.8431939,106 53,106 C67.1568061,106 80.4661785,100.487052 90.4767398,90.4767051 C100.487064,80.4663583 106,67.1567193 106,53.0001184 C106,38.8430439 100.486827,25.5336417 90.476503,15.5232949 Z M52.9997632,102.261244 C25.837136,102.261244 3.73874739,80.1628063 3.73874739,53.0001184 C3.73874739,25.8374304 25.837136,3.73875574 52.9997632,3.73875574 C80.1623905,3.73875574 102.260779,25.8374304 102.260779,53.0001184 C102.260779,80.1628063 80.1626273,102.261244 52.9997632,102.261244 Z" id="Shape"></path>
                </g>
            </g>
        </g>
    </g>
</svg>